HIERARCHY
ROOT Root
{
	OFFSET 0.00 0.00 0.00
	CHANNELS 6 Xposition Yposition Zposition Xrotation Yrotation Zrotation
	JOINT L_Femur
	{
		OFFSET 3.69615 0.00000 0.00000
		CHANNELS 3 Xrotation Yrotation Zrotation
		JOINT L_Tibia
		{
			OFFSET 0.00000 -15.48154 0.00000
			CHANNELS 3 Xrotation Yrotation Zrotation
			JOINT L_Foot
			{
				OFFSET 0.00000 -15.45804 0.00000
				CHANNELS 3 Xrotation Yrotation Zrotation
				JOINT L_Toe
				{
					OFFSET 0.00000 -1.61659 6.03322
					CHANNELS 3 Xrotation Yrotation Zrotation
					End Site
					{
						OFFSET 0.00000 0.00000 2.95275
					}
				}
			}
		}
	}
	JOINT R_Femur
	{
		OFFSET -3.69615 0.00000 0.00000
		CHANNELS 3 Xrotation Yrotation Zrotation
		JOINT R_Tibia
		{
			OFFSET 0.00000 -15.48154 0.00000
			CHANNELS 3 Xrotation Yrotation Zrotation
			JOINT R_Foot
			{
				OFFSET 0.00000 -15.45804 0.00000
				CHANNELS 3 Xrotation Yrotation Zrotation
				JOINT R_Toe
				{
					OFFSET 0.00000 -1.61659 6.03322
					CHANNELS 3 Xrotation Yrotation Zrotation
					End Site
					{
						OFFSET 0.00000 0.00000 2.95275
					}
				}
			}
		}
	}
	JOINT LowerBack
	{
		OFFSET 0.00000 0.03937 0.00000
		CHANNELS 3 Xrotation Yrotation Zrotation
		JOINT Thorax
		{
			OFFSET 0.00000 8.86644 0.00000
			CHANNELS 3 Xrotation Yrotation Zrotation
			JOINT Neck
			{
				OFFSET 0.00000 9.52797 0.00000
				CHANNELS 3 Xrotation Yrotation Zrotation
				JOINT Head
				{
					OFFSET 0.00000 6.76959 0.00000
					CHANNELS 3 Xrotation Yrotation Zrotation
					End Site
					{
						OFFSET 0.00000 4.52755 0.00000
					}
				}
			}
			JOINT L_Collar
			{
				OFFSET 0.00000 9.52797 0.00000
				CHANNELS 3 Xrotation Yrotation Zrotation
				JOINT L_Humerus
				{
					OFFSET 6.91428 -0.00003 0.00000
					CHANNELS 3 Xrotation Yrotation Zrotation
					JOINT L_Elbow
					{
						OFFSET 11.23919 -0.00004 0.00000
						CHANNELS 3 Xrotation Yrotation Zrotation
						JOINT L_Wrist
						{
							OFFSET 9.07538 -0.00003 0.00000
							CHANNELS 3 Xrotation Yrotation Zrotation
							JOINT L_Thumb
							{
								OFFSET 0.00000 0.00000 0.00000
								CHANNELS 3 Xrotation Yrotation Zrotation
								End Site
								{
									OFFSET 0.00000 0.00000 3.93700
								}
							}
							End Site
							{
								OFFSET 3.93700 -0.00001 0.00000
							}
						}
					}
				}
			}
			JOINT R_Collar
			{
				OFFSET 0.00000 9.52797 0.00000
				CHANNELS 3 Xrotation Yrotation Zrotation
				JOINT R_Humerus
				{
					OFFSET -6.91428 -0.00003 0.00000
					CHANNELS 3 Xrotation Yrotation Zrotation
					JOINT R_Elbow
					{
						OFFSET -11.23919 -0.00004 0.00000
						CHANNELS 3 Xrotation Yrotation Zrotation
						JOINT R_Wrist
						{
							OFFSET -9.07538 -0.00003 0.00000
							CHANNELS 3 Xrotation Yrotation Zrotation
							JOINT R_Thumb
							{
								OFFSET 0.00000 0.00000 0.00000
								CHANNELS 3 Xrotation Yrotation Zrotation
								End Site
								{
									OFFSET 0.00000 0.00000 3.93700
								}
							}
							End Site
							{
								OFFSET -5.39369 -0.00002 0.00000
							}
						}
					}
				}
			}
		}
	}
}
MOTION
Frames: 10
Frame Time: 0.066664
 53.4027 31.9479 -23.0988 -11.3567 58.3542 8.4439 11.7255 18.0322 15.2771 42.6458 -0.0000 0.0000 7.0494 -19.6443 -19.7493 -44.6312 0.0000 -0.0000 -10.6691 -16.0588 9.7485 18.6450 0.0000 -0.0000 2.3103 -6.3520 17.8794 -18.5302 0.0000 -0.0000 -14.5033 -7.7064 -1.0029 26.1079 -7.6519 -0.1443 14.2130 -7.6272 0.8062 -32.6655 -8.9311 3.3317 2.2831 9.2923 8.3556 -28.9556 -22.0957 -83.5735 -0.0001 -31.4143 -0.0000 -8.3727 -16.8050 -9.8239 -0.0000 0.0000 -0.0000 1.3340 4.5748 -8.6146 4.1303 7.4961 85.7216 -0.0000 9.2328 0.0000 -5.4363 -3.6073 3.1186 -0.0000 0.0000 -0.0000
 55.1795 32.3096 -20.9726 -10.7219 54.3850 7.0305 -0.7996 11.7388 19.0538 65.0072 0.0000 -0.0000 14.5794 -17.4375 -21.1527 -32.8011 0.0000 -0.0000 -1.8183 -16.2004 12.7851 13.9654 -0.0000 -0.0000 0.6880 -0.9310 17.6646 -18.4052 0.0000 0.0000 -13.9109 -7.3406 -0.9898 24.9877 -6.8576 0.5041 14.2847 -7.9589 2.2364 -30.5214 -7.3679 3.7614 3.1430 9.6515 9.0226 -24.6864 -21.0500 -86.7307 -0.0001 -23.6591 -0.0000 -9.2763 -15.5660 -12.2422 -0.0000 0.0000 -0.0000 1.1263 4.7223 -8.4732 1.1325 7.9653 86.3570 -0.0000 11.8860 0.0000 -5.9460 -4.3616 4.1947 -0.0000 0.0000 -0.0000
 56.7249 32.6809 -19.0517 -9.1779 45.5240 6.9514 -9.6261 9.7454 17.1895 73.8932 -0.0000 -0.0000 7.6742 -13.2687 -20.3834 -32.5751 -0.0000 0.0000 4.8910 -10.4632 12.6122 9.1523 0.0000 0.0000 1.0134 3.3737 16.6099 -18.3011 -0.0000 0.0000 -13.7970 -5.4295 -0.8823 24.8090 -5.6755 -1.2525 14.2852 -6.5986 2.2196 -30.5569 -5.1173 3.6546 4.0529 11.6511 7.8244 -19.3477 -20.8049 -86.2936 -0.0001 -16.8278 -0.0000 -7.9487 -14.7237 -11.7317 -0.0000 0.0000 -0.0000 0.5900 5.2908 -7.9974 -2.0061 12.4358 86.0797 -0.0001 21.4611 0.0000 -7.2445 -2.1671 3.1563 -0.0000 0.0000 -0.0000
 58.1017 32.8559 -17.2714 -7.2745 35.7032 6.2999 -15.8149 6.9380 13.5418 70.3861 0.0000 -0.0000 1.2932 -4.6930 -18.7033 -31.3364 -0.0000 -0.0000 9.6729 -7.6531 10.8916 7.2743 -0.0000 0.0000 0.6944 10.5397 15.4959 -18.8678 0.0000 0.0000 -13.9094 -4.2962 -0.6547 24.9227 -4.8997 -2.0920 13.9133 -3.8261 1.0824 -30.7980 -1.4695 2.7402 5.4959 13.2059 6.4982 -12.9352 -17.9022 -86.0405 -0.0000 -11.9929 -0.0000 -8.3311 -14.9054 -9.2553 -0.0000 0.0000 -0.0000 -0.0006 5.8432 -8.9977 -5.7266 16.9827 86.3785 -0.0001 33.9143 0.0000 -6.9047 -0.6481 1.9402 -0.0000 0.0000 -0.0000
 59.2094 32.8291 -15.5486 -4.9484 25.7876 4.7408 -19.8986 4.8049 11.4081 55.9488 0.0000 -0.0000 -2.2997 0.5475 -15.1013 -30.0937 -0.0000 -0.0000 11.6282 -2.9190 9.1283 7.8780 -0.0000 -0.0000 -0.3574 15.3542 14.8362 -19.7493 -0.0000 -0.0000 -14.3974 -3.4653 -0.8007 25.6410 -3.7196 -1.6174 13.3871 -0.5222 -0.0337 -31.4839 1.3288 2.9741 6.8500 14.6121 5.8173 -8.7959 -15.3278 -87.8661 -0.0000 -7.2589 -0.0000 -6.5101 -13.6140 -10.3735 -0.0000 0.0000 -0.0000 -0.5163 6.6070 -9.1651 -9.5325 22.3553 85.3342 -0.0002 44.2047 0.0001 -9.2323 0.1550 2.8793 -0.0000 0.0000 -0.0000
 60.1321 32.6466 -13.7273 -3.1586 19.4651 2.5184 -21.1663 1.9740 10.6547 31.8553 -0.0000 0.0000 -1.2183 -1.5012 -17.8456 -29.9010 -0.0000 -0.0000 14.5650 -0.2730 8.6090 6.5690 -0.0000 -0.0000 -0.8251 19.7315 15.3840 -20.4824 0.0000 0.0000 -14.8596 -3.9107 -1.0942 26.4317 -3.3563 -0.0990 13.8334 1.3701 -0.5081 -33.7115 3.4731 3.1605 8.1152 15.0590 5.9701 -5.8711 -17.7330 -89.9127 -0.0000 -6.1172 -0.0000 -4.8699 -12.3978 -12.2543 -0.0000 0.0000 -0.0000 -0.9679 6.9874 -9.1364 -12.2151 27.2647 84.4502 -0.0003 50.9880 0.0001 -6.8971 -0.4275 3.0506 -0.0000 0.0000 -0.0000
 61.0327 32.2889 -11.5610 -2.8012 15.5039 0.5385 -19.5079 7.6109 10.4770 5.2058 -0.0000 -0.0000 0.3227 -11.0546 -22.6451 -30.7336 0.0000 0.0000 19.2982 -1.0450 8.4457 5.5318 0.0000 0.0000 -0.7754 25.8123 16.1053 -21.6689 -0.0000 0.0000 -15.1100 -4.1050 -0.8375 27.6386 -2.9688 1.0501 14.4541 1.0131 -0.7439 -35.1450 1.8403 3.4468 8.6784 15.1208 6.6714 -4.4671 -21.0603 -90.3533 -0.0000 -7.8913 -0.0000 -5.2152 -12.2637 -13.7505 -0.0000 0.0000 -0.0000 -0.6079 7.0053 -9.3697 -12.1281 28.0594 84.3647 -0.0003 54.6250 0.0002 -6.1397 -0.4758 2.7711 -0.0000 0.0000 -0.0000
 62.0340 31.8179 -9.0680 -3.2702 11.3554 0.2168 -19.6272 5.2651 8.9342 3.2947 0.0000 -0.0000 0.7090 -19.0559 -22.5215 -32.2005 -0.0000 0.0000 22.7481 -3.0208 6.2379 9.4337 0.0000 -0.0000 -1.8136 31.9313 16.2081 -25.7969 -0.0000 -0.0000 -15.2482 -3.5096 -0.4369 28.3271 -2.6041 0.6450 15.1380 -0.7359 -1.5587 -34.4618 -3.7735 3.4438 8.4483 15.7415 5.7661 -3.4249 -21.3118 -87.2881 -0.0000 -10.8762 -0.0000 -6.1022 -12.6612 -13.4251 -0.0000 0.0000 -0.0000 -0.1779 7.1274 -9.7197 -10.0892 27.4115 84.8252 -0.0003 51.8862 0.0001 -7.9357 0.0893 2.9396 -0.0000 0.0000 -0.0000
 62.9899 31.4404 -6.1311 -3.5185 7.1144 1.6140 -21.0671 -5.0676 6.5707 18.3389 0.0000 -0.0000 5.7862 -18.2827 -27.1351 -32.6752 0.0000 -0.0000 23.4821 -3.9650 2.1296 17.8651 -0.0000 -0.0000 1.0714 34.7245 12.3935 -33.4611 0.0000 -0.0000 -16.1859 -2.6679 -1.0883 27.8105 -2.6796 -1.2026 15.6392 -4.1705 -1.5093 -30.9764 -10.0533 3.3215 7.9676 16.0902 4.8202 -3.5645 -21.2043 -83.4609 -0.0000 -12.1834 -0.0000 -7.3239 -14.2033 -10.1510 -0.0000 0.0000 -0.0000 0.2531 6.8193 -9.4339 -7.7181 27.2217 85.7249 -0.0002 40.8888 0.0001 -7.3296 0.4323 2.9294 -0.0000 0.0000 -0.0000
 63.7466 31.6360 -3.2184 -4.4535 0.8606 4.4485 -17.6979 -2.6905 4.1137 26.7860 -0.0000 -0.0000 -0.9673 -13.8491 -24.7776 -31.1234 -0.0000 0.0000 16.4414 -5.0453 -5.0048 37.3354 -0.0000 -0.0000 15.8477 35.3066 12.1740 -41.8010 0.0000 0.0000 -15.7983 -1.4420 -1.8465 26.6353 -3.2784 -4.8473 15.5452 -6.8108 -1.6008 -27.5691 -15.5330 3.5005 7.1867 15.6373 4.2366 -6.0512 -21.3735 -80.5409 -0.0000 -11.4739 -0.0000 -3.5590 -12.8256 -8.3407 -0.0000 0.0000 -0.0000 0.2806 7.1154 -9.3339 -7.3723 23.1051 88.4121 -0.0001 22.3222 0.0000 -5.5752 0.3980 0.1638 -0.0000 0.0000 -0.0000
